<svg width="55" height="55" viewBox="0 0 55 55" fill="none" xmlns="http://www.w3.org/2000/svg">
<g clip-path="url(#clip0_2019_209)">
<path d="M55 19.25L44 8.25L33 19.25L36.85 23.1L41.25 18.7V35.75C41.25 37.4 40.15 38.5 38.5 38.5H24.75V44H38.5C43.175 44 46.75 40.425 46.75 35.75V18.7L51.15 23.1L55 19.25ZM13.75 36.3V19.25C13.75 17.6 14.85 16.5 16.5 16.5H30.25V11H16.5C11.825 11 8.25 14.575 8.25 19.25V36.3L3.85 31.9L0 35.75L11 46.75L22 35.75L18.15 31.9L13.75 36.3Z" fill="#A5FB9E"/>
<g filter="url(#filter0_d_2019_209)">
<path d="M18.47 31.05V29.75L24.22 29.76C24.5133 29.76 24.7367 29.6933 24.89 29.56C25.05 29.42 25.13 29.1967 25.13 28.89C25.13 28.5833 25.05 28.3633 24.89 28.23C24.7367 28.09 24.5133 28.02 24.22 28.02H20.64C19.9 28.02 19.3233 27.8433 18.91 27.49C18.5033 27.13 18.3 26.6033 18.3 25.91C18.3 25.2167 18.5033 24.6933 18.91 24.34C19.3233 23.98 19.9 23.8 20.64 23.8H26.26V25.1L20.81 25.09C20.5233 25.09 20.3 25.1567 20.14 25.29C19.98 25.4167 19.9 25.6233 19.9 25.91C19.9 26.1967 19.98 26.4067 20.14 26.54C20.3 26.6667 20.5233 26.73 20.81 26.73H24.39C25.13 26.73 25.7033 26.9133 26.11 27.28C26.5233 27.64 26.73 28.1767 26.73 28.89C26.73 29.5967 26.5233 30.1333 26.11 30.5C25.7033 30.8667 25.13 31.05 24.39 31.05H18.47ZM27.7332 31V23.85H29.0732L32.3832 26.17H32.4332L35.7432 23.85H37.0832V31H35.4832V25.85L33.2132 27.37V31H31.6132V27.37L29.3332 25.85V31H27.7332Z" fill="white"/>
</g>
</g>
<defs>
<filter id="filter0_d_2019_209" x="17.2998" y="22.7998" width="20.7832" height="9.25" filterUnits="userSpaceOnUse" color-interpolation-filters="sRGB">
<feFlood flood-opacity="0" result="BackgroundImageFix"/>
<feColorMatrix in="SourceAlpha" type="matrix" values="0 0 0 0 0 0 0 0 0 0 0 0 0 0 0 0 0 0 127 0" result="hardAlpha"/>
<feOffset/>
<feGaussianBlur stdDeviation="0.5"/>
<feComposite in2="hardAlpha" operator="out"/>
<feColorMatrix type="matrix" values="0 0 0 0 1 0 0 0 0 1 0 0 0 0 1 0 0 0 0.5 0"/>
<feBlend mode="normal" in2="BackgroundImageFix" result="effect1_dropShadow_2019_209"/>
<feBlend mode="normal" in="SourceGraphic" in2="effect1_dropShadow_2019_209" result="shape"/>
</filter>
<clipPath id="clip0_2019_209">
<rect width="55" height="55" fill="white"/>
</clipPath>
</defs>
</svg>
